<svg width="300" height="298" viewBox="0 0 300 298" fill="none" xmlns="http://www.w3.org/2000/svg">
<path d="M60.5 180.5C85.3528 180.5 105.5 200.647 105.5 225.5C105.5 250.353 85.3528 270.5 60.5 270.5C35.6472 270.5 15.5 250.353 15.5 225.5C15.5 200.647 35.6472 180.5 60.5 180.5Z" stroke="#BAC3C6" stroke-width="15"/>
<path d="M239.5 180.5C264.353 180.5 284.5 200.647 284.5 225.5C284.5 250.353 264.353 270.5 239.5 270.5C214.647 270.5 194.5 250.353 194.5 225.5C194.5 200.647 214.647 180.5 239.5 180.5Z" stroke="#BAC3C6" stroke-width="15"/>
<path d="M149.5 24.5C174.353 24.5 194.5 44.6472 194.5 69.5C194.5 94.3528 174.353 114.5 149.5 114.5C124.647 114.5 104.5 94.3528 104.5 69.5C104.5 44.6472 124.647 24.5 149.5 24.5Z" stroke="#BAC3C6" stroke-width="15"/>
<path d="M121.904 115.876L122.77 116.376L88.5264 175.688L87.6604 175.188L121.904 115.876Z" fill="white" stroke="#BAC3C6" stroke-width="20"/>
<path d="M175.896 116.853L176.762 116.353L212.123 177.6L211.257 178.1L175.896 116.853Z" fill="white" stroke="#BAC3C6" stroke-width="20"/>
</svg>
