<svg version="1.2" xmlns="http://www.w3.org/2000/svg" viewBox="0 0 585 375" width="585" height="375">
	<title>undraw_web-shopping_xd5k</title>
	<style>
		.s0 { fill: #e49497 } 
		.s1 { fill: #090814 } 
		.s2 { fill: #e6e6e6 } 
		.s3 { fill: #ffffff } 
		.s4 { fill: #c76a22 } 
		.s5 { fill: #2f2e41 } 
		.s6 { fill: #ed9da0 } 
		.s7 { fill: #3f3d56 } 
		.s8 { fill: #cacaca } 
		.s9 { fill: #d6d6e3 } 
	</style>
	<g>
		<path fill-rule="evenodd" class="s0" d="m645.3 543.9h12.5v16.6h-12.5z"/>
		<path class="s1" d="m660.4 570.3q0.3-0.2 0.6-0.5 0.3-0.3 0.5-0.7 0.3-0.4 0.4-0.8 0.1-0.4 0.2-0.8 0-0.6-0.2-1.1-0.1-0.5-0.3-1-0.2-0.5-0.6-1-0.3-0.4-0.7-0.8c0-0.3-0.4-5.1-1.3-5.9q0.1-0.4 0.2-0.8 0-0.4 0-0.8 0-0.4-0.1-0.8-0.1-0.3-0.3-0.7-0.1-0.2-0.3-0.3-0.2-0.2-0.4-0.3-0.2-0.1-0.5-0.2-0.2-0.1-0.4-0.1h-0.1c0 0.1-2.1 3.8-5.3 4.1q-2.8 0.2-5.4-2.8c-0.1-0.2-0.6-2.6-0.9-4.3l-17.4 9.1-10.1 2.8c-0.6 0.2-1.1 0.5-1.5 0.9-0.4 0.5-0.6 1.1-0.7 1.7 0 0.6 0.1 1.2 0.4 1.7 0.3 0.5 0.7 0.9 1.3 1.2l4.9 2.4q0.8 0.3 1.6 0.6 0.8 0.3 1.6 0.5 0.9 0.2 1.7 0.3 0.9 0.1 1.7 0.1h26.7q0.6 0 1.2-0.1 0.7-0.1 1.3-0.3 0.6-0.3 1.1-0.6 0.6-0.3 1.1-0.7z"/>
		<path fill-rule="evenodd" class="s0" d="m776.3 542.7l9.3-6.8 6.9 9.3-9.3 6.8z"/>
		<path class="s1" d="m799.8 551.1q0.1-0.4 0.1-0.8 0.1-0.4 0-0.8 0-0.4-0.1-0.8-0.1-0.4-0.3-0.7-0.3-0.4-0.7-0.8-0.4-0.3-0.8-0.5-0.5-0.3-1-0.4-0.4-0.1-0.9-0.2c-0.3-0.3-3.2-3.6-4.3-3.7q-0.1-0.4-0.3-0.7-0.2-0.3-0.4-0.6-0.2-0.3-0.5-0.5-0.3-0.2-0.6-0.4-0.2 0-0.4-0.1-0.3 0-0.5 0-0.2 0.1-0.4 0.2-0.2 0-0.4 0.2c0 0 0.4 3.9-1.8 5.9q-1.9 1.7-5.5 0.9c-0.2 0-1.9-1.6-3-2.7h-0.1l-7.9 16.3-6 7.6q-0.3 0.4-0.4 0.8-0.2 0.4-0.2 0.9 0 0.4 0.2 0.8 0.1 0.5 0.4 0.8 0.2 0.3 0.5 0.6 0.3 0.2 0.7 0.4 0.3 0.1 0.7 0.1 0.4 0.1 0.8 0l4.9-0.9q0.8-0.2 1.5-0.4 0.8-0.3 1.5-0.6 0.8-0.3 1.4-0.7 0.7-0.4 1.4-0.8l19.8-14.7q0.5-0.3 0.9-0.7 0.4-0.4 0.7-0.9 0.3-0.5 0.6-1 0.2-0.6 0.4-1.1z"/>
		<g>
			<path class="s2" d="m0.3 0.3h585.8v369.8q0 1.1-0.4 2.1-0.4 1-1.2 1.7-0.8 0.8-1.8 1.2-1 0.4-2 0.4h-575q-1.1 0-2.1-0.4-1-0.4-1.8-1.2-0.7-0.7-1.1-1.7-0.4-1-0.4-2.1z"/>
			<path class="s3" d="m20.6 47.4h545.1q0.7 0 1.4 0.3 0.7 0.2 1.2 0.8 0.5 0.5 0.8 1.1 0.3 0.7 0.3 1.4v298.7q0 0.7-0.3 1.4-0.3 0.7-0.8 1.2-0.5 0.5-1.2 0.8-0.7 0.2-1.4 0.2h-545.1q-0.7 0-1.4-0.2-0.6-0.3-1.1-0.8-0.5-0.5-0.8-1.2-0.3-0.7-0.3-1.4v-298.7q0-0.7 0.3-1.4 0.3-0.6 0.8-1.1 0.5-0.6 1.1-0.8 0.7-0.3 1.4-0.3z"/>
			<path class="s4" d="m5.5 0h574.9q1.1 0 2.1 0.4 1 0.4 1.8 1.2 0.7 0.8 1.1 1.8 0.5 1 0.5 2.1v19.4h-585.9v-19.4q0-1.1 0.4-2.1 0.4-1 1.2-1.8 0.8-0.8 1.8-1.2 1-0.4 2.1-0.4z"/>
			<path class="s3" d="m18.5 8.1c1.9 0 3.5 1.1 4.3 2.9 0.7 1.7 0.3 3.7-1 5-1.4 1.3-3.3 1.7-5.1 1-1.7-0.7-2.8-2.4-2.8-4.3q0-0.9 0.3-1.7 0.4-0.9 1-1.5 0.7-0.7 1.5-1 0.9-0.4 1.8-0.4z"/>
			<path class="s3" d="m36 8.1c1.9 0 3.6 1.1 4.3 2.9 0.7 1.7 0.3 3.7-1 5-1.4 1.3-3.3 1.7-5.1 1-1.7-0.7-2.8-2.4-2.8-4.3q0-0.9 0.3-1.7 0.4-0.9 1-1.5 0.7-0.7 1.5-1 0.9-0.4 1.8-0.4z"/>
			<path class="s3" d="m53.5 8.1c1.9 0 3.6 1.1 4.3 2.9 0.7 1.7 0.3 3.7-1 5-1.3 1.3-3.3 1.7-5 1-1.8-0.7-2.9-2.4-2.9-4.3q0-0.9 0.4-1.7 0.3-0.9 1-1.5 0.6-0.7 1.5-1 0.8-0.4 1.7-0.4z"/>
			<path class="s2" d="m88.6 72.6h100.8q0.7 0 1.4 0.2 0.6 0.3 1.1 0.8 0.5 0.5 0.8 1.2 0.3 0.7 0.3 1.4v109.9q0 0.8-0.3 1.4-0.3 0.7-0.8 1.2-0.5 0.5-1.1 0.8-0.7 0.3-1.4 0.3h-100.8q-0.7 0-1.4-0.3-0.7-0.3-1.2-0.8-0.5-0.5-0.8-1.2-0.2-0.6-0.2-1.4v-109.9q0-0.7 0.2-1.4 0.3-0.7 0.8-1.2 0.5-0.5 1.2-0.8 0.7-0.2 1.4-0.2z"/>
			<path class="s2" d="m242.8 72.6h100.8q0.7 0 1.4 0.2 0.6 0.3 1.1 0.8 0.5 0.5 0.8 1.2 0.3 0.7 0.3 1.4v109.9q0 0.8-0.3 1.4-0.3 0.7-0.8 1.2-0.5 0.5-1.1 0.8-0.7 0.3-1.4 0.3h-100.8q-0.7 0-1.4-0.3-0.7-0.3-1.2-0.8-0.5-0.5-0.8-1.2-0.2-0.6-0.2-1.4v-109.9q0-0.7 0.2-1.4 0.3-0.7 0.8-1.2 0.5-0.5 1.2-0.8 0.7-0.2 1.4-0.2z"/>
			<path class="s2" d="m397 72.6h100.8q0.7 0 1.4 0.2 0.6 0.3 1.1 0.8 0.5 0.5 0.8 1.2 0.3 0.7 0.3 1.4v109.9q0 0.8-0.3 1.4-0.3 0.7-0.8 1.2-0.5 0.5-1.1 0.8-0.7 0.3-1.4 0.3h-100.8q-0.7 0-1.4-0.3-0.7-0.3-1.2-0.8-0.5-0.5-0.8-1.2-0.2-0.6-0.2-1.4v-109.9q0-0.7 0.2-1.4 0.3-0.7 0.8-1.2 0.5-0.5 1.2-0.8 0.7-0.2 1.4-0.2z"/>
			<path class="s2" d="m88.6 211h100.8q0.7 0 1.4 0.3 0.6 0.2 1.1 0.7 0.5 0.6 0.8 1.2 0.3 0.7 0.3 1.4v109.9q0 0.8-0.3 1.4-0.3 0.7-0.8 1.2-0.5 0.5-1.1 0.8-0.7 0.3-1.4 0.3h-100.8q-0.7 0-1.4-0.3-0.7-0.3-1.2-0.8-0.5-0.5-0.8-1.2-0.2-0.6-0.2-1.4v-109.9q0-0.7 0.2-1.4 0.3-0.6 0.8-1.2 0.5-0.5 1.2-0.7 0.7-0.3 1.4-0.3z"/>
			<path class="s2" d="m242.8 211h100.8q0.7 0 1.4 0.3 0.6 0.2 1.1 0.7 0.5 0.6 0.8 1.2 0.3 0.7 0.3 1.4v109.9q0 0.8-0.3 1.4-0.3 0.7-0.8 1.2-0.5 0.5-1.1 0.8-0.7 0.3-1.4 0.3h-100.8q-0.7 0-1.4-0.3-0.7-0.3-1.2-0.8-0.5-0.5-0.8-1.2-0.2-0.6-0.2-1.4v-109.9q0-0.7 0.2-1.4 0.3-0.6 0.8-1.2 0.5-0.5 1.2-0.7 0.7-0.3 1.4-0.3z"/>
			<path class="s2" d="m397 211h100.8q0.7 0 1.4 0.3 0.6 0.2 1.1 0.7 0.5 0.6 0.8 1.2 0.3 0.7 0.3 1.4v109.9q0 0.8-0.3 1.4-0.3 0.7-0.8 1.2-0.5 0.5-1.1 0.8-0.7 0.3-1.4 0.3h-100.8q-0.7 0-1.4-0.3-0.7-0.3-1.2-0.8-0.5-0.5-0.8-1.2-0.2-0.6-0.2-1.4v-109.9q0-0.7 0.2-1.4 0.3-0.6 0.8-1.2 0.5-0.5 1.2-0.7 0.7-0.3 1.4-0.3z"/>
			<path class="s3" d="m265.3 241.1l19.7-7.8 2.3 39c0 0 4.1 12 2.8 16.5 0 0 0.9 7.8-1.4 8.3-2.3 0.5-8.7 1.4-9.2 0.9-0.4-0.4-0.4-1.8-0.4-1.8 0 0-4.6 3.2-5.1 6.9 0 0-19.3 5.9-19.7 0.4-0.5-5.5 9.6-10.1 9.6-10.1l7.8-11.9z"/>
			<path class="s3" d="m307 241.1l19.8-7.8 2.3 39c0 0 4.1 12 2.7 16.5 0 0 1 7.8-1.3 8.3-2.3 0.5-8.8 1.4-9.2 0.9-0.5-0.4-0.5-1.8-0.5-1.8 0 0-4.6 3.2-5 6.9 0 0-19.3 5.9-19.8 0.4-0.4-5.5 9.7-10.1 9.7-10.1l7.8-11.9z"/>
			<path class="s4" d="m309 90.4c0 0-4.2 11.8 0.6 17.1l-4 13.9c0 0 14.4 43.3 10.3 49.3 0 0-15.4 7.7-46.2-2.7l12.5-48.5-1.8-20.5 2.5-9.6 5.5-0.5c0 0-3.3 12.3 2.8 14.2 6 2 11.9-13.9 11.9-13.9z"/>
			<path class="s3" d="m114.9 166.2l5.3 2.2 25.3-33.3 7.9 39.1 5.3-1c3.4-33.6 6.2-68 2.8-84.2l-19.6-0.9-8.9 28.5-4.4 19.3z"/>
			<path class="s3" d="m436.8 88.7c0 0-7.2 10.1-6.9 14.1 0.4 4.1 4.9 70.3 4.9 70.3l10.8 0.5-3.2-47.6 2.7-12.9 6.5 60 13.3 0.3-11.9-77.8-2.3-6.9z"/>
			<path class="s4" d="m477.7 250.8c-1.9-2.3-5.2-3.5-8.4-4.2 0.1-0.3-9.6-2.3-9.8-1.9l-3.7-2.9-11.3 5.8-6.3-4.3-3 1.1c0.2-0.6-9.1 1.1-9.1 1.1-1.8 0-4 0.1-6.6 0.3-8.8 0.7-9.5 23.6-9.5 23.6q1.5-0.6 3.1-1.1 1.6-0.4 3.2-0.8 1.6-0.3 3.2-0.5 1.7-0.2 3.3-0.2l2.4 27.4c12.3-1.1 25.3 0.2 38.6 3.2l6.3-21.6 14.6-5.7c0 0-2.5-13.8-7-19.3z"/>
			<path class="s3" d="m164 237.7c-1.6-1.9-4.3-2.9-7-3.4 0.1-0.3-7.9-1.9-8-1.6l-3.1-2.4-9.3 4.8-5.2-3.5-2.4 0.8c0.1-0.4-7.6 0.9-7.6 0.9-1.4 0.1-3.3 0.2-5.3 0.3-7.3 0.6-7.9 19.5-7.9 19.5q1.2-0.5 2.5-0.9 1.3-0.4 2.7-0.7 1.3-0.3 2.6-0.4 1.4-0.2 2.8-0.2l1.9 55.3q4-0.3 8-0.2 4 0 8 0.3 4 0.3 8 1 3.9 0.6 7.8 1.6l5.2-50.6 12.1-4.6c0 0-2.1-11.5-5.8-16z"/>
		</g>
		<path class="s5" d="m681 252.5h51.8v-27.7c0-6.9-2.7-13.5-7.6-18.3-4.8-4.9-11.4-7.6-18.3-7.6-6.8 0-13.4 2.7-18.3 7.6-4.8 4.8-7.6 11.4-7.6 18.3z"/>
		<path class="s5" d="m719.9 367.6l0.8 4.3c0 0 2.6 2.6 1.3 3.9-1.3 1.2-0.8 7.3-0.8 7.3 0.7 10.9 15 72.6 17.6 84.6 0 0 19.8 12.9 35.2 38.3 15.5 25.4 15.9 31.8 15.9 31.8l-17.2 7.3-42.9-52c0 0-12.1-7.3-16.4-13.7-4.3-6.5-30.9-73.1-30.9-73.1l-15.1 69.6c0 0 0.9 25.4-3 41.7q-0.9 3.9-1.6 7.8-0.7 3.9-1.2 7.8-0.6 3.9-0.9 7.9-0.4 3.9-0.6 7.9l-20.2-2.2c0 0 1.3-61 3.5-67.4 0 0-9.1-74.4 9-104.1l14.5-38.8 14.3-5.4z"/>
		<path class="s6" d="m698.3 243.3h16.7l2.5 23.6h-20.9z"/>
		<path class="s6" d="m707.2 205.6c-27.1 0.5-27.1 40.9 0 41.3 27.1-0.5 27.1-40.8 0-41.3z"/>
		<path class="s5" d="m686.3 225.2h4.6l1.3-3.1-0.6 3.1h25.2l-0.9-6.6 6.2 6.6h6.1v-3.6c0-5.5-2.2-10.9-6.1-14.9-3.9-3.9-9.3-6.1-14.8-6.1-5.6 0-11 2.2-14.9 6.1-3.9 4-6.1 9.3-6.1 14.9z"/>
		<path class="s7" d="m679.2 259l37.9-0.4 13.4 0.8-10.9 109.8c0 0-59.9-3.1-59.9-21.4l5.6-16.3z"/>
		<path class="s6" d="m732.7 379.9c-0.8-1-1.4-2.1-1.7-3.3-0.3-1.2-0.3-2.5-0.1-3.7 0.2-1.2 0.7-2.4 1.5-3.4 0.7-1 1.6-1.9 2.7-2.5l-2.2-19.3 11.4-4.2 2.8 27.3c0.9 1.9 1 4.1 0.5 6.1-0.6 2-1.9 3.7-3.7 4.8-1.8 1.2-3.9 1.6-6 1.2-2-0.3-3.9-1.4-5.2-3z"/>
		<path class="s7" d="m723.7 268.8l6.8-9.4c0 0 4.6-1 10 5.3 5.5 6.4 8.7 85.9 8.7 85.9l-20 4.6-11.8-56.4z"/>
		<path class="s3" d="m610.8 355.1l1.5 70.6 45.7 24.2 83.3-14.9 2-73.4-52.8-18.6z"/>
		<path class="s8" d="m657.9 450.6l-46.4-24.5-1.5-71.7 80.6-12.2 0.2 0.1 53.3 18.8-2.1 74.5zm-44.9-25.4l45.1 23.9 82.5-14.7 2-72.3-52.1-18.4-79 12z"/>
		<path class="s8" d="m657 374.2l-0.2-0.1-46.3-18.4 0.5-1.3 46.1 18.3 86.1-11.9 0.2 1.5z"/>
		<path fill-rule="evenodd" class="s8" d="m656.3 373.5h1.5l0.9 76.4h-1.4z"/>
		<path class="s8" d="m651.1 370.6l-16.7-6.8 80.4-12.8 16.6 6.8z"/>
		<path fill-rule="evenodd" class="s8" d="m610.5 376.9l0.6-1.3 19.3 8.3-0.6 1.3z"/>
		<path fill-rule="evenodd" class="s4" d="m619.2 401l0.6-1.3 19.4 8.3-0.6 1.3z"/>
		<path class="s3" d="m356.3 453.2l1.5 70.6 45.7 24.2 83.3-14.9 2.1-73.4-52.8-18.6z"/>
		<path class="s8" d="m403.4 548.8l-46.3-24.5-1.5-71.7 80.6-12.2h0.1l53.3 18.8-2 74.6zm-44.9-25.4l45.1 23.8 82.4-14.7 2-72.3-52.1-18.4-78.9 12z"/>
		<path class="s8" d="m402.5 472.4l-0.2-0.1-46.2-18.4 0.5-1.4 46.1 18.4 86.1-11.9 0.2 1.4z"/>
		<path fill-rule="evenodd" class="s8" d="m401.9 471.6h1.4l1 76.4h-1.5z"/>
		<path class="s8" d="m392.6 467l-12.6-5.1 80.3-12.8 12.7 5.1z"/>
		<path fill-rule="evenodd" class="s8" d="m356 475l0.6-1.3 19.4 8.3-0.6 1.4z"/>
		<path fill-rule="evenodd" class="s4" d="m364.8 499.1l0.6-1.3 19.3 8.3-0.5 1.4z"/>
		<path class="s4" d="m435.8 462.9l1.7 82 53.1 28 96.7-17.2 2.3-85.3-61.2-21.5z"/>
		<path class="s9" d="m490.4 573.8l-53.7-28.4-1.8-83.2 93.5-14.2 0.2 0.1 61.9 21.7-2.4 86.6zm-52.1-29.5l52.4 27.7 95.7-17.1 2.3-83.9-60.5-21.3-91.6 13.9z"/>
		<path class="s9" d="m489.4 485.1l-0.2-0.1-53.7-21.3 0.6-1.6 53.5 21.3 99.9-13.8 0.3 1.7z"/>
		<path fill-rule="evenodd" class="s9" d="m488.7 484.3l1.7-0.1 1 88.7-1.7 0.1z"/>
		<path class="s9" d="m478.8 479l-15.6-6 93.3-14.8 15.5 5.9z"/>
		<path fill-rule="evenodd" class="s9" d="m435.4 488.2l0.7-1.5 22.5 9.7-0.7 1.5z"/>
		<path fill-rule="evenodd" class="s9" d="m445.6 516.2l0.7-1.5 22.4 9.6-0.6 1.6z"/>
		<path class="s6" d="m636.7 366.7c1.1-0.5 2.1-1.3 2.9-2.2 0.8-1 1.4-2.1 1.7-3.3 0.3-1.2 0.4-2.5 0.2-3.7-0.3-1.2-0.7-2.4-1.5-3.4l10.4-16.5-8.5-8.7-14.3 23.5c-1.6 1.3-2.7 3.2-3 5.2-0.4 2.1 0 4.2 1.2 6 1.1 1.8 2.8 3.1 4.8 3.6 2 0.6 4.2 0.4 6.1-0.5z"/>
		<path class="s7" d="m687.1 263.3l-7.4-4.9c0 0-5.8 1.3-11.9 13-6.1 11.8-30.7 64.2-30.7 64.2l10.1 10.3 27-41.2z"/>
	</g>
</svg>