<svg version="1.2" xmlns="http://www.w3.org/2000/svg" viewBox="0 0 799 465" width="799" height="465">
	<title>undraw_web-app_141a</title>
	<style>
		.s0 { fill: #d6d6e3 } 
		.s1 { fill: #090814 } 
		.s2 { fill: #ffffff } 
		.s3 { fill: #c76a22 } 
		.s4 { fill: #f2f2f2 } 
		.s5 { opacity: .15;fill: #ffffff } 
	</style>
	<g>
		<path class="s0" d="m76.9 617.3q-0.1 0.3 0 0.6 0.1 0.2 0.3 0.4 0.2 0.3 0.4 0.4 0.3 0.1 0.6 0.2h651.9c0.4-0.1 0.8-0.3 1-0.6 0.2-0.3 0.4-0.6 0.4-1 0-0.4-0.2-0.7-0.4-1-0.2-0.3-0.6-0.5-1-0.6h-651.9q-0.3 0-0.6 0.2-0.2 0.1-0.4 0.3-0.2 0.3-0.3 0.5-0.1 0.3 0 0.6z"/>
		<path class="s0" d="m427.2 461.9c-1 6.5-4.2 12.5-9.2 16.8-5 4.3-11.4 6.7-18 6.7-6.6 0-13-2.4-18-6.7-5-4.3-8.2-10.3-9.2-16.8h-69.6v153.8h193.6v-153.8z"/>
		<path class="s1" d="m789.2 465.8h-778.4c-1.4 0-2.8-0.3-4.1-0.8-1.3-0.5-2.5-1.3-3.5-2.3-1-1-1.8-2.2-2.4-3.5-0.5-1.3-0.8-2.7-0.8-4.2v-444.2c0-1.4 0.3-2.8 0.8-4.1 0.6-1.3 1.4-2.5 2.4-3.5 1-1 2.2-1.8 3.5-2.4 1.3-0.5 2.7-0.8 4.1-0.8h778.4c1.4 0 2.8 0.3 4.1 0.8 1.3 0.6 2.5 1.4 3.5 2.4 1 1 1.8 2.2 2.4 3.5 0.5 1.3 0.8 2.7 0.8 4.1v444.2c0 1.5-0.3 2.9-0.8 4.2-0.6 1.3-1.4 2.5-2.4 3.5-1 1-2.2 1.8-3.5 2.3-1.3 0.5-2.7 0.8-4.1 0.8z"/>
		<path fill-rule="evenodd" class="s2" d="m20.1 18h761.7v429.8h-761.7z"/>
		<path fill-rule="evenodd" class="s3" d="m53 42h100c2.2 0 4 1.8 4 4v352c0 2.2-1.8 4-4 4h-100c-2.2 0-4-1.8-4-4v-352c0-2.2 1.8-4 4-4z"/>
		<path class="s2" d="m93 57h20q1.2 0 2.3 0.5 1.1 0.4 1.9 1.3 0.9 0.8 1.3 1.9 0.5 1.1 0.5 2.3v4q0 1.2-0.5 2.3-0.4 1.1-1.3 1.9-0.8 0.9-1.9 1.3-1.1 0.5-2.3 0.5h-20q-1.2 0-2.3-0.5-1.1-0.4-1.9-1.3-0.9-0.8-1.3-1.9-0.5-1.1-0.5-2.3v-4q0-1.2 0.5-2.3 0.4-1.1 1.3-1.9 0.8-0.9 1.9-1.3 1.1-0.5 2.3-0.5z"/>
		<path class="s2" d="m67 370h72q0.8 0 1.5 0.3 0.8 0.3 1.3 0.9 0.6 0.5 0.9 1.3 0.3 0.7 0.3 1.5v8q0 0.8-0.3 1.5-0.3 0.8-0.9 1.3-0.5 0.6-1.3 0.9-0.7 0.3-1.5 0.3h-72q-0.8 0-1.5-0.3-0.8-0.3-1.3-0.9-0.6-0.5-0.9-1.3-0.3-0.7-0.3-1.5v-8q0-0.8 0.3-1.5 0.3-0.8 0.9-1.3 0.5-0.6 1.3-0.9 0.7-0.3 1.5-0.3z"/>
		<path class="s4" d="m194 42h72q0.8 0 1.5 0.3 0.8 0.3 1.3 0.9 0.6 0.5 0.9 1.3 0.3 0.7 0.3 1.5v8q0 0.8-0.3 1.5-0.3 0.8-0.9 1.3-0.5 0.6-1.3 0.9-0.7 0.3-1.5 0.3h-72q-0.8 0-1.5-0.3-0.8-0.3-1.3-0.9-0.6-0.5-0.9-1.3-0.3-0.7-0.3-1.5v-8q0-0.8 0.3-1.5 0.3-0.8 0.9-1.3 0.5-0.6 1.3-0.9 0.7-0.3 1.5-0.3z"/>
		<path fill-rule="evenodd" class="s3" d="m198 80h144c4.4 0 8 3.6 8 8v72c0 4.4-3.6 8-8 8h-144c-4.4 0-8-3.6-8-8v-72c0-4.4 3.6-8 8-8z"/>
		<path fill-rule="evenodd" class="s2" d="m71 89h64c4.4 0 8 3.6 8 8 0 4.4-3.6 8-8 8h-64c-4.4 0-8-3.6-8-8 0-4.4 3.6-8 8-8z"/>
		<path fill-rule="evenodd" class="s4" d="m206 336h496c8.8 0 16 7.2 16 16v34c0 8.8-7.2 16-16 16h-496c-8.8 0-16-7.2-16-16v-34c0-8.8 7.2-16 16-16z"/>
		<path class="s3" d="m642 42h72q0.8 0 1.5 0.3 0.8 0.3 1.3 0.9 0.6 0.5 0.9 1.3 0.3 0.7 0.3 1.5v8q0 0.8-0.3 1.5-0.3 0.8-0.9 1.3-0.5 0.6-1.3 0.9-0.7 0.3-1.5 0.3h-72q-0.8 0-1.5-0.3-0.8-0.3-1.3-0.9-0.6-0.5-0.9-1.3-0.3-0.7-0.3-1.5v-8q0-0.8 0.3-1.5 0.3-0.8 0.9-1.3 0.5-0.6 1.3-0.9 0.7-0.3 1.5-0.3z"/>
		<path fill-rule="evenodd" class="s5" d="m71 113h64c4.4 0 8 3.6 8 8 0 4.4-3.6 8-8 8h-64c-4.4 0-8-3.6-8-8 0-4.4 3.6-8 8-8z"/>
		<path fill-rule="evenodd" class="s5" d="m71 137h64c4.4 0 8 3.6 8 8 0 4.4-3.6 8-8 8h-64c-4.4 0-8-3.6-8-8 0-4.4 3.6-8 8-8z"/>
		<path fill-rule="evenodd" class="s5" d="m71 161h64c4.4 0 8 3.6 8 8 0 4.4-3.6 8-8 8h-64c-4.4 0-8-3.6-8-8 0-4.4 3.6-8 8-8z"/>
		<path fill-rule="evenodd" class="s5" d="m71 185h64c4.4 0 8 3.6 8 8 0 4.4-3.6 8-8 8h-64c-4.4 0-8-3.6-8-8 0-4.4 3.6-8 8-8z"/>
		<path fill-rule="evenodd" class="s3" d="m566 80h144c4.4 0 8 3.6 8 8v72c0 4.4-3.6 8-8 8h-144c-4.4 0-8-3.6-8-8v-72c0-4.4 3.6-8 8-8z"/>
		<path fill-rule="evenodd" class="s3" d="m382 80h144c4.4 0 8 3.6 8 8v72c0 4.4-3.6 8-8 8h-144c-4.4 0-8-3.6-8-8v-72c0-4.4 3.6-8 8-8z"/>
		<path fill-rule="evenodd" class="s4" d="m206 258h496c8.8 0 16 7.2 16 16v34c0 8.8-7.2 16-16 16h-496c-8.8 0-16-7.2-16-16v-34c0-8.8 7.2-16 16-16z"/>
		<path fill-rule="evenodd" class="s4" d="m206 180h496c8.8 0 16 7.2 16 16v34c0 8.8-7.2 16-16 16h-496c-8.8 0-16-7.2-16-16v-34c0-8.8 7.2-16 16-16z"/>
	</g>
</svg>